<?xml version="1.0" encoding="iso-8859-1"?>
<!-- Generator: Adobe Illustrator 19.0.0, SVG Export Plug-In . SVG Version: 6.00 Build 0)  -->
<svg version="1.1" id="Capa_1" xmlns="http://www.w3.org/2000/svg" xmlns:xlink="http://www.w3.org/1999/xlink" x="0px" y="0px"
	 viewBox="0 0 480 480" style="enable-background:new 0 0 480 480;" xml:space="preserve">
<path style="fill:#DE2F55;" d="M156.001,8l17.232,96h77.536l17.232-96H156.001z"/>
<path style="fill:#E1C6BE;" d="M259.385,56l-8.616,48h-77.536l-8.616-48H36.001v416h352V56H259.385z"/>
<g>
	<circle style="fill:#65CECC;" cx="212.001" cy="56" r="16"/>
	<path style="fill:#65CECC;" d="M84.001,136h256v176h-256V136z"/>
</g>
<g>
	<circle style="fill:#E9CD4B;" cx="212.001" cy="200" r="32"/>
	<path style="fill:#E9CD4B;" d="M195.221,232h33.56c17.242,0,31.22,13.978,31.22,31.22V312l0,0h-96l0,0v-48.78
		C164.001,245.978,177.978,232,195.221,232L195.221,232z"/>
</g>
<path style="fill:#00BA54;" d="M420.001,312l-64,80l-24-24l-24,24l48,48l88-104L420.001,312z"/>
<path d="M212.001,80c-13.255,0-24-10.745-24-24s10.745-24,24-24c13.255,0,24,10.745,24,24C235.986,69.249,225.25,79.986,212.001,80z
	 M212.001,48c-4.418,0-8,3.582-8,8s3.582,8,8,8s8-3.582,8-8C219.995,51.584,216.417,48.006,212.001,48z"/>
<path d="M340.001,128h-256c-4.418,0-8,3.582-8,8v176c0,4.418,3.582,8,8,8h256c4.418,0,8-3.582,8-8V136
	C348.001,131.582,344.419,128,340.001,128z M212.001,224c-13.255,0-24-10.745-24-24s10.745-24,24-24c13.255,0,24,10.745,24,24
	C235.986,213.249,225.25,223.986,212.001,224z M195.219,240h33.563c12.818,0.013,23.206,10.401,23.219,23.219V304h-80v-40.781
	C172.014,250.401,182.402,240.013,195.219,240z M332.001,304h-64v-40.781c-0.052-16.579-10.541-31.329-26.184-36.821
	c14.727-16.467,13.316-41.755-3.151-56.482s-41.755-13.316-56.482,3.151c-13.579,15.184-13.579,38.147,0,53.331
	c-15.643,5.493-26.131,20.242-26.183,36.821V304h-64V144h240V304z"/>
<path d="M76.001,336h120v16h-120V336z"/>
<path d="M212.001,336h48v16h-48V336z"/>
<path d="M76.001,384h192v16h-192V384z"/>
<path d="M276.001,336h32v16h-32V336z"/>
<path d="M449.657,330.344l-24-24c-3.121-3.124-8.183-3.126-11.307-0.005c-0.211,0.21-0.409,0.433-0.595,0.665l-17.754,22.191V56
	c0-4.418-3.582-8-8-8H268.95l6.926-38.586c0.781-4.349-2.112-8.508-6.462-9.288C268.948,0.042,268.475,0,268.001,0h-112
	C151.582,0,148,3.582,148,8.001c0,0.474,0.042,0.947,0.126,1.413L155.052,48H36.001c-4.418,0-8,3.582-8,8v416c0,4.418,3.582,8,8,8
	h352c4.418,0,8-3.582,8-8v-66.889l54.105-63.943C452.794,337.992,452.598,333.286,449.657,330.344L449.657,330.344z M258.438,16
	l-14.359,80h-64.156l-14.359-80H258.438z M380.001,464h-336V64h113.922l7.433,41.414c0.684,3.813,4.002,6.587,7.875,6.586h77.539
	c3.874,0.001,7.191-2.773,7.875-6.586L266.078,64h113.922v285.195l-24.664,30.829l-17.68-17.68
	c-3.122-3.124-8.186-3.125-11.309-0.003c-0.001,0.001-0.002,0.002-0.003,0.003l-24,24c-3.124,3.122-3.125,8.186-0.003,11.309
	c0.001,0.001,0.002,0.002,0.003,0.003l48,48c1.5,1.501,3.535,2.344,5.656,2.344l0.332-0.008c2.234-0.093,4.328-1.117,5.773-2.824
	l17.895-21.148L380.001,464z M355.509,428.195L319.313,392l12.688-12.688l18.344,18.344c1.615,1.599,3.828,2.445,6.098,2.332
	c2.273-0.126,4.384-1.214,5.805-2.992l58.418-73.02l12.473,12.477L355.509,428.195z"/>
<path d="M76.001,432h72v16h-72V432z"/>
<path d="M164.001,432h128v16h-128V432z"/>
<g>
</g>
<g>
</g>
<g>
</g>
<g>
</g>
<g>
</g>
<g>
</g>
<g>
</g>
<g>
</g>
<g>
</g>
<g>
</g>
<g>
</g>
<g>
</g>
<g>
</g>
<g>
</g>
<g>
</g>
</svg>
